<mxfile host="app.diagrams.net" modified="2023-12-07T03:55:22.335Z" agent="Mozilla/5.0 (Windows NT 10.0; Win64; x64) AppleWebKit/537.36 (KHTML, like Gecko) Chrome/119.0.0.0 Safari/537.36" etag="EzNdtNzEbl1HC26Nj95h" version="22.1.7" type="github">
  <diagram name="Page-1" id="Jv1g81ATU9zkHoRyQLGm">
    <mxGraphModel dx="1972" dy="2609" grid="1" gridSize="10" guides="1" tooltips="1" connect="1" arrows="1" fold="1" page="1" pageScale="1" pageWidth="850" pageHeight="1100" math="0" shadow="0">
      <root>
        <mxCell id="0" />
        <mxCell id="1" parent="0" />
        <mxCell id="5xi1tdNm8i5OjT9YdTC8-5" value="" style="edgeStyle=orthogonalEdgeStyle;rounded=0;orthogonalLoop=1;jettySize=auto;html=1;" edge="1" parent="1" source="5xi1tdNm8i5OjT9YdTC8-1" target="5xi1tdNm8i5OjT9YdTC8-4">
          <mxGeometry relative="1" as="geometry">
            <Array as="points">
              <mxPoint x="425" y="180" />
              <mxPoint x="-225" y="180" />
            </Array>
          </mxGeometry>
        </mxCell>
        <mxCell id="5xi1tdNm8i5OjT9YdTC8-19" value="" style="edgeStyle=orthogonalEdgeStyle;rounded=0;orthogonalLoop=1;jettySize=auto;html=1;" edge="1" parent="1" source="5xi1tdNm8i5OjT9YdTC8-1" target="5xi1tdNm8i5OjT9YdTC8-18">
          <mxGeometry relative="1" as="geometry">
            <Array as="points">
              <mxPoint x="425" y="180" />
              <mxPoint x="770" y="180" />
            </Array>
          </mxGeometry>
        </mxCell>
        <mxCell id="5xi1tdNm8i5OjT9YdTC8-36" value="" style="edgeStyle=orthogonalEdgeStyle;rounded=0;orthogonalLoop=1;jettySize=auto;html=1;" edge="1" parent="1" source="5xi1tdNm8i5OjT9YdTC8-1" target="5xi1tdNm8i5OjT9YdTC8-35">
          <mxGeometry relative="1" as="geometry" />
        </mxCell>
        <mxCell id="5xi1tdNm8i5OjT9YdTC8-57" value="" style="edgeStyle=orthogonalEdgeStyle;rounded=0;orthogonalLoop=1;jettySize=auto;html=1;" edge="1" parent="1" source="5xi1tdNm8i5OjT9YdTC8-1" target="5xi1tdNm8i5OjT9YdTC8-56">
          <mxGeometry relative="1" as="geometry">
            <Array as="points">
              <mxPoint x="425" y="180" />
              <mxPoint x="1250" y="180" />
            </Array>
          </mxGeometry>
        </mxCell>
        <mxCell id="5xi1tdNm8i5OjT9YdTC8-1" value="Home" style="rounded=1;whiteSpace=wrap;html=1;arcSize=12;" vertex="1" parent="1">
          <mxGeometry x="365" y="50" width="120" height="60" as="geometry" />
        </mxCell>
        <mxCell id="5xi1tdNm8i5OjT9YdTC8-25" value="" style="edgeStyle=orthogonalEdgeStyle;rounded=0;orthogonalLoop=1;jettySize=auto;html=1;" edge="1" parent="1" source="5xi1tdNm8i5OjT9YdTC8-4" target="5xi1tdNm8i5OjT9YdTC8-24">
          <mxGeometry relative="1" as="geometry">
            <Array as="points">
              <mxPoint x="-180" y="500" />
            </Array>
          </mxGeometry>
        </mxCell>
        <mxCell id="5xi1tdNm8i5OjT9YdTC8-28" value="" style="edgeStyle=orthogonalEdgeStyle;rounded=0;orthogonalLoop=1;jettySize=auto;html=1;" edge="1" parent="1" source="5xi1tdNm8i5OjT9YdTC8-4" target="5xi1tdNm8i5OjT9YdTC8-27">
          <mxGeometry relative="1" as="geometry">
            <Array as="points">
              <mxPoint x="-180" y="400" />
            </Array>
          </mxGeometry>
        </mxCell>
        <mxCell id="5xi1tdNm8i5OjT9YdTC8-34" style="edgeStyle=orthogonalEdgeStyle;rounded=0;orthogonalLoop=1;jettySize=auto;html=1;exitX=0.5;exitY=1;exitDx=0;exitDy=0;entryX=1;entryY=0.5;entryDx=0;entryDy=0;" edge="1" parent="1" source="5xi1tdNm8i5OjT9YdTC8-4" target="5xi1tdNm8i5OjT9YdTC8-32">
          <mxGeometry relative="1" as="geometry">
            <Array as="points">
              <mxPoint x="-180" y="300" />
              <mxPoint x="-180" y="600" />
            </Array>
          </mxGeometry>
        </mxCell>
        <mxCell id="5xi1tdNm8i5OjT9YdTC8-53" value="" style="edgeStyle=orthogonalEdgeStyle;rounded=0;orthogonalLoop=1;jettySize=auto;html=1;" edge="1" parent="1" source="5xi1tdNm8i5OjT9YdTC8-4" target="5xi1tdNm8i5OjT9YdTC8-52">
          <mxGeometry relative="1" as="geometry">
            <Array as="points">
              <mxPoint x="-180" y="700" />
            </Array>
          </mxGeometry>
        </mxCell>
        <mxCell id="5xi1tdNm8i5OjT9YdTC8-55" value="" style="edgeStyle=orthogonalEdgeStyle;rounded=0;orthogonalLoop=1;jettySize=auto;html=1;" edge="1" parent="1" source="5xi1tdNm8i5OjT9YdTC8-4" target="5xi1tdNm8i5OjT9YdTC8-54">
          <mxGeometry relative="1" as="geometry">
            <Array as="points">
              <mxPoint x="-180" y="800" />
            </Array>
          </mxGeometry>
        </mxCell>
        <mxCell id="5xi1tdNm8i5OjT9YdTC8-4" value="Services" style="rounded=1;whiteSpace=wrap;html=1;arcSize=12;" vertex="1" parent="1">
          <mxGeometry x="-285" y="240" width="120" height="60" as="geometry" />
        </mxCell>
        <mxCell id="5xi1tdNm8i5OjT9YdTC8-38" value="" style="edgeStyle=orthogonalEdgeStyle;rounded=0;orthogonalLoop=1;jettySize=auto;html=1;" edge="1" parent="1" source="5xi1tdNm8i5OjT9YdTC8-16" target="5xi1tdNm8i5OjT9YdTC8-37">
          <mxGeometry relative="1" as="geometry">
            <Array as="points">
              <mxPoint x="330" y="400" />
            </Array>
          </mxGeometry>
        </mxCell>
        <mxCell id="5xi1tdNm8i5OjT9YdTC8-41" value="" style="edgeStyle=orthogonalEdgeStyle;rounded=0;orthogonalLoop=1;jettySize=auto;html=1;" edge="1" parent="1" source="5xi1tdNm8i5OjT9YdTC8-16" target="5xi1tdNm8i5OjT9YdTC8-40">
          <mxGeometry relative="1" as="geometry">
            <Array as="points">
              <mxPoint x="330" y="340" />
              <mxPoint x="330" y="340" />
            </Array>
          </mxGeometry>
        </mxCell>
        <mxCell id="5xi1tdNm8i5OjT9YdTC8-44" style="edgeStyle=orthogonalEdgeStyle;rounded=0;orthogonalLoop=1;jettySize=auto;html=1;exitX=0.5;exitY=1;exitDx=0;exitDy=0;entryX=1;entryY=0.5;entryDx=0;entryDy=0;" edge="1" parent="1" source="5xi1tdNm8i5OjT9YdTC8-16" target="5xi1tdNm8i5OjT9YdTC8-20">
          <mxGeometry relative="1" as="geometry">
            <Array as="points">
              <mxPoint x="330" y="300" />
              <mxPoint x="330" y="600" />
            </Array>
          </mxGeometry>
        </mxCell>
        <mxCell id="5xi1tdNm8i5OjT9YdTC8-45" style="edgeStyle=orthogonalEdgeStyle;rounded=0;orthogonalLoop=1;jettySize=auto;html=1;exitX=0.5;exitY=0;exitDx=0;exitDy=0;entryX=0.5;entryY=1;entryDx=0;entryDy=0;" edge="1" parent="1" source="5xi1tdNm8i5OjT9YdTC8-16" target="5xi1tdNm8i5OjT9YdTC8-1">
          <mxGeometry relative="1" as="geometry">
            <Array as="points">
              <mxPoint x="290" y="180" />
              <mxPoint x="425" y="180" />
            </Array>
          </mxGeometry>
        </mxCell>
        <mxCell id="5xi1tdNm8i5OjT9YdTC8-16" value="About Us" style="rounded=1;whiteSpace=wrap;html=1;arcSize=12;" vertex="1" parent="1">
          <mxGeometry x="230" y="240" width="120" height="60" as="geometry" />
        </mxCell>
        <mxCell id="5xi1tdNm8i5OjT9YdTC8-18" value="Blog" style="rounded=1;whiteSpace=wrap;html=1;arcSize=12;" vertex="1" parent="1">
          <mxGeometry x="710" y="240" width="120" height="60" as="geometry" />
        </mxCell>
        <mxCell id="5xi1tdNm8i5OjT9YdTC8-20" value="Contact Us" style="rounded=1;whiteSpace=wrap;html=1;arcSize=12;" vertex="1" parent="1">
          <mxGeometry x="190" y="570" width="120" height="60" as="geometry" />
        </mxCell>
        <mxCell id="5xi1tdNm8i5OjT9YdTC8-47" value="" style="edgeStyle=orthogonalEdgeStyle;rounded=0;orthogonalLoop=1;jettySize=auto;html=1;" edge="1" parent="1" source="5xi1tdNm8i5OjT9YdTC8-24" target="5xi1tdNm8i5OjT9YdTC8-46">
          <mxGeometry relative="1" as="geometry">
            <Array as="points">
              <mxPoint x="-380" y="500" />
              <mxPoint x="-380" y="460" />
            </Array>
          </mxGeometry>
        </mxCell>
        <mxCell id="5xi1tdNm8i5OjT9YdTC8-49" value="" style="edgeStyle=orthogonalEdgeStyle;rounded=0;orthogonalLoop=1;jettySize=auto;html=1;" edge="1" parent="1" source="5xi1tdNm8i5OjT9YdTC8-24" target="5xi1tdNm8i5OjT9YdTC8-48">
          <mxGeometry relative="1" as="geometry">
            <Array as="points">
              <mxPoint x="-380" y="500" />
              <mxPoint x="-380" y="550" />
            </Array>
          </mxGeometry>
        </mxCell>
        <mxCell id="5xi1tdNm8i5OjT9YdTC8-51" value="" style="edgeStyle=orthogonalEdgeStyle;rounded=0;orthogonalLoop=1;jettySize=auto;html=1;" edge="1" parent="1" source="5xi1tdNm8i5OjT9YdTC8-24" target="5xi1tdNm8i5OjT9YdTC8-50">
          <mxGeometry relative="1" as="geometry">
            <Array as="points">
              <mxPoint x="-380" y="500" />
              <mxPoint x="-380" y="640" />
            </Array>
          </mxGeometry>
        </mxCell>
        <mxCell id="5xi1tdNm8i5OjT9YdTC8-24" value="Residential PC" style="rounded=1;whiteSpace=wrap;html=1;arcSize=12;" vertex="1" parent="1">
          <mxGeometry x="-330" y="470" width="120" height="60" as="geometry" />
        </mxCell>
        <mxCell id="5xi1tdNm8i5OjT9YdTC8-27" value="Heat Treatment" style="rounded=1;whiteSpace=wrap;html=1;arcSize=12;" vertex="1" parent="1">
          <mxGeometry x="-330" y="370" width="120" height="60" as="geometry" />
        </mxCell>
        <mxCell id="5xi1tdNm8i5OjT9YdTC8-32" value="Commercial PC" style="rounded=1;whiteSpace=wrap;html=1;arcSize=12;" vertex="1" parent="1">
          <mxGeometry x="-330" y="920" width="120" height="60" as="geometry" />
        </mxCell>
        <mxCell id="5xi1tdNm8i5OjT9YdTC8-35" value="- Find Location (Service Area)&lt;br&gt;- FAQ&lt;br&gt;- Search&lt;br&gt;- Get Free Quote&lt;br&gt;- Write a Review&lt;br&gt;- Chat Bot" style="shape=process;whiteSpace=wrap;html=1;backgroundOutline=1;rounded=1;arcSize=12;fillColor=#dae8fc;strokeColor=#6c8ebf;align=left;" vertex="1" parent="1">
          <mxGeometry x="520" y="35" width="230" height="90" as="geometry" />
        </mxCell>
        <mxCell id="5xi1tdNm8i5OjT9YdTC8-37" value="FAQ" style="rounded=1;whiteSpace=wrap;html=1;arcSize=12;" vertex="1" parent="1">
          <mxGeometry x="190" y="370" width="120" height="60" as="geometry" />
        </mxCell>
        <mxCell id="5xi1tdNm8i5OjT9YdTC8-43" value="" style="edgeStyle=orthogonalEdgeStyle;rounded=0;orthogonalLoop=1;jettySize=auto;html=1;" edge="1" parent="1" source="5xi1tdNm8i5OjT9YdTC8-40" target="5xi1tdNm8i5OjT9YdTC8-42">
          <mxGeometry relative="1" as="geometry" />
        </mxCell>
        <mxCell id="5xi1tdNm8i5OjT9YdTC8-40" value="Student&amp;nbsp; Ambassador Program&lt;br&gt;(Greeny&#39;s PC Idea)" style="rounded=1;whiteSpace=wrap;html=1;arcSize=12;" vertex="1" parent="1">
          <mxGeometry x="190" y="470" width="120" height="60" as="geometry" />
        </mxCell>
        <mxCell id="5xi1tdNm8i5OjT9YdTC8-42" value="- Why WEEZWEEZ&lt;br&gt;- Compensation&lt;br&gt;- SAP FAQ&lt;br&gt;- Apply" style="shape=process;whiteSpace=wrap;html=1;backgroundOutline=1;rounded=1;arcSize=12;align=left;fillColor=#dae8fc;strokeColor=#6c8ebf;" vertex="1" parent="1">
          <mxGeometry x="10" y="465" width="160" height="70" as="geometry" />
        </mxCell>
        <mxCell id="5xi1tdNm8i5OjT9YdTC8-46" value="Insect&amp;nbsp; Control" style="rounded=1;whiteSpace=wrap;html=1;arcSize=12;" vertex="1" parent="1">
          <mxGeometry x="-520" y="430" width="120" height="60" as="geometry" />
        </mxCell>
        <mxCell id="5xi1tdNm8i5OjT9YdTC8-48" value="Rodent Control" style="rounded=1;whiteSpace=wrap;html=1;arcSize=12;" vertex="1" parent="1">
          <mxGeometry x="-520" y="520" width="120" height="60" as="geometry" />
        </mxCell>
        <mxCell id="5xi1tdNm8i5OjT9YdTC8-50" value="Mosquito and Tick Control&amp;nbsp;" style="rounded=1;whiteSpace=wrap;html=1;arcSize=12;" vertex="1" parent="1">
          <mxGeometry x="-520" y="610" width="120" height="60" as="geometry" />
        </mxCell>
        <mxCell id="5xi1tdNm8i5OjT9YdTC8-59" value="" style="edgeStyle=orthogonalEdgeStyle;rounded=0;orthogonalLoop=1;jettySize=auto;html=1;" edge="1" parent="1" source="5xi1tdNm8i5OjT9YdTC8-52" target="5xi1tdNm8i5OjT9YdTC8-58">
          <mxGeometry relative="1" as="geometry" />
        </mxCell>
        <mxCell id="5xi1tdNm8i5OjT9YdTC8-52" value="Wildlife Control" style="rounded=1;whiteSpace=wrap;html=1;arcSize=12;" vertex="1" parent="1">
          <mxGeometry x="-330" y="1020" width="120" height="60" as="geometry" />
        </mxCell>
        <mxCell id="5xi1tdNm8i5OjT9YdTC8-54" value="Disinfection" style="rounded=1;whiteSpace=wrap;html=1;arcSize=12;" vertex="1" parent="1">
          <mxGeometry x="-330" y="1120" width="120" height="60" as="geometry" />
        </mxCell>
        <mxCell id="5xi1tdNm8i5OjT9YdTC8-56" value="Testimonials" style="rounded=1;whiteSpace=wrap;html=1;arcSize=12;" vertex="1" parent="1">
          <mxGeometry x="1190" y="240" width="120" height="60" as="geometry" />
        </mxCell>
        <mxCell id="5xi1tdNm8i5OjT9YdTC8-58" value="Bird Exclusion" style="rounded=1;whiteSpace=wrap;html=1;arcSize=12;" vertex="1" parent="1">
          <mxGeometry x="-530" y="1020" width="120" height="60" as="geometry" />
        </mxCell>
      </root>
    </mxGraphModel>
  </diagram>
</mxfile>
